<svg width="32" height="32" viewBox="0 0 32 32" fill="none" xmlns="http://www.w3.org/2000/svg">
<path d="M2.6667 15.9998C2.6667 8.63584 8.63603 2.6665 16 2.6665C23.364 2.6665 29.3334 8.63584 29.3334 15.9998C29.3334 23.3638 23.364 29.3332 16 29.3332H5.88565C4.69777 29.3332 4.10289 27.897 4.94284 27.057L5.628 26.3719C6.14918 25.8507 6.14269 25.0094 5.67566 24.4392C4.85159 23.4331 4.17809 22.3095 3.67854 21.1036C3.00833 19.4856 2.66447 17.7511 2.6667 15.9998ZM9.9799 25.7906C9.65668 26.1139 9.8856 26.6665 10.3427 26.6665H16C18.1097 26.6665 20.172 26.0409 21.9261 24.8688C23.6802 23.6968 25.0474 22.0309 25.8547 20.0818C26.6621 18.1327 26.8733 15.988 26.4617 13.9189C26.0502 11.8497 25.0343 9.94913 23.5425 8.45737C22.0507 6.96561 20.1501 5.9497 18.081 5.53813C16.0119 5.12655 13.8672 5.33779 11.9181 6.14512C9.969 6.95246 8.30309 8.31963 7.13102 10.0738C5.95895 11.8279 5.33336 13.8902 5.33336 15.9998C5.33336 18.8692 6.46803 21.5532 8.45736 23.5425L9.9799 25.065C10.1803 25.2654 10.1803 25.5903 9.9799 25.7906V25.7906ZM14.6667 9.33317C14.6667 8.59679 15.2637 7.99984 16 7.99984V7.99984C16.7364 7.99984 17.3334 8.59679 17.3334 9.33317V22.6665C17.3334 23.4029 16.7364 23.9998 16 23.9998V23.9998C15.2637 23.9998 14.6667 23.4029 14.6667 22.6665V9.33317ZM9.33336 13.3332C9.33336 12.5968 9.93032 11.9998 10.6667 11.9998V11.9998C11.4031 11.9998 12 12.5968 12 13.3332V18.6665C12 19.4029 11.4031 19.9998 10.6667 19.9998V19.9998C9.93032 19.9998 9.33336 19.4029 9.33336 18.6665V13.3332ZM20 13.3332C20 12.5968 20.597 11.9998 21.3334 11.9998V11.9998C22.0697 11.9998 22.6667 12.5968 22.6667 13.3332V18.6665C22.6667 19.4029 22.0697 19.9998 21.3334 19.9998V19.9998C20.597 19.9998 20 19.4029 20 18.6665V13.3332Z" fill="#52525B"/>
</svg>
