<svg width="52" height="48" viewBox="0 0 52 48" fill="none" xmlns="http://www.w3.org/2000/svg">
<path d="M51.1753 14.7576C51.1753 21.4161 46.4937 26.9376 40.6281 26.9376C46.7224 24.6953 48.2809 20.198 48.2809 15.6007C48.2809 12.2278 46.808 9.19895 44.4706 7.12241C45.3406 6.75139 46.8476 7.25586 47.5874 7.69427C51.3571 9.92804 51.1623 14.5202 51.1748 14.7476C51.1753 14.7544 51.1753 14.7576 51.1753 14.7576Z" fill="#A0B6EA"/>
<path d="M51.157 14.1306C51.1463 13.9368 50.869 9.78708 46.3823 8.70001C45.8454 8.56973 45.2482 8.4833 44.5839 8.45299C39.1655 8.20501 33.6698 9.23082 28.899 11.5601C30.3663 14.4969 31.474 16.4586 31.474 16.4586C22.4226 16.1993 11.2148 17.4873 11.2148 17.4873C16.8811 6.46779 23.8722 -0.000196457 23.8722 -0.000196457C24.3337 1.3007 24.8441 2.61028 25.3759 3.89216C29.5163 1.96276 34.3602 1.22363 38.7199 1.50387C38.9227 1.51708 39.1317 1.53256 39.3458 1.55063C45.8416 2.09918 50.9187 7.42044 51.1509 13.9352C51.1534 14.0003 51.1554 14.0651 51.157 14.1306Z" fill="#254EDB"/>
<path d="M0 33.2426C0 26.5841 4.68154 21.0626 10.5472 21.0626C4.45286 23.3049 2.8943 27.8022 2.8943 32.3995C2.8943 35.7724 4.36726 38.8012 6.70464 40.8778C5.83462 41.2488 4.32762 40.7443 3.58779 40.3059C-0.181891 38.0721 0.0129186 33.48 0.000441393 33.2525C-1.79512e-08 33.2458 0 33.2426 0 33.2426Z" fill="#A0B6EA"/>
<path d="M0.0179443 33.869C0.028597 34.0628 0.30592 38.2125 4.79259 39.2996C5.32953 39.4298 5.92675 39.5163 6.59108 39.5466C12.0094 39.7946 17.5051 38.7688 22.2759 36.4395C20.8086 33.5026 19.7009 31.541 19.7009 31.541C28.7523 31.8003 39.9602 30.5123 39.9602 30.5123C34.2938 41.5318 27.3028 47.9998 27.3028 47.9998C26.8413 46.6989 26.3308 45.3893 25.799 44.1074C21.6587 46.0368 16.8147 46.7759 12.4551 46.4957C12.2522 46.4825 12.0433 46.467 11.8291 46.449C5.33338 45.9004 0.256247 40.5791 0.0240358 34.0644C0.0215051 33.9993 0.0195628 33.9345 0.0179443 33.869Z" fill="#254EDB"/>
</svg>
