<svg width="33" height="32" viewBox="0 0 33 32" fill="none" xmlns="http://www.w3.org/2000/svg">
<path d="M5.96131 26.3719C6.48249 25.8507 6.47601 25.0094 6.00898 24.4392C5.18491 23.4331 4.5114 22.3095 4.01185 21.1036C3.34165 19.4856 2.99778 17.7511 3.00001 15.9998C3.00001 8.63584 8.96934 2.6665 16.3333 2.6665C23.6973 2.6665 29.6667 8.63584 29.6667 15.9998C29.6667 23.3638 23.6973 29.3332 16.3333 29.3332H6.21896C5.03109 29.3332 4.4362 27.897 5.27615 27.057L5.96131 26.3719ZM16.3333 7.99984C15.597 7.99984 15 8.59679 15 9.33317V22.6665C15 23.4029 15.597 23.9998 16.3333 23.9998C17.0697 23.9998 17.6667 23.4029 17.6667 22.6665V9.33317C17.6667 8.59679 17.0697 7.99984 16.3333 7.99984ZM11 11.9998C10.2636 11.9998 9.66668 12.5968 9.66668 13.3332V18.6665C9.66668 19.4029 10.2636 19.9998 11 19.9998C11.7364 19.9998 12.3333 19.4029 12.3333 18.6665V13.3332C12.3333 12.5968 11.7364 11.9998 11 11.9998ZM21.6667 11.9998C20.9303 11.9998 20.3333 12.5968 20.3333 13.3332V18.6665C20.3333 19.4029 20.9303 19.9998 21.6667 19.9998C22.4031 19.9998 23 19.4029 23 18.6665V13.3332C23 12.5968 22.4031 11.9998 21.6667 11.9998Z" fill="#2E90FA"/>
</svg>
