<svg width="28" height="28" viewBox="0 0 28 28" fill="none" xmlns="http://www.w3.org/2000/svg">
<path d="M22.0414 20.1558L27.752 25.8652L25.8654 27.7518L20.156 22.0412C18.0317 23.7441 15.3894 24.6704 12.6667 24.6665C6.04269 24.6665 0.666687 19.2905 0.666687 12.6665C0.666687 6.0425 6.04269 0.666504 12.6667 0.666504C19.2907 0.666504 24.6667 6.0425 24.6667 12.6665C24.6706 15.3892 23.7443 18.0315 22.0414 20.1558ZM19.3667 19.1665C21.0588 17.4264 22.0038 15.0937 22 12.6665C22 7.50917 17.8227 3.33317 12.6667 3.33317C7.50935 3.33317 3.33335 7.50917 3.33335 12.6665C3.33335 17.8225 7.50935 21.9998 12.6667 21.9998C15.0939 22.0037 17.4265 21.0587 19.1667 19.3665L19.3667 19.1665Z" fill="#52525B"/>
</svg>
