<svg width="28" height="28" viewBox="0 0 28 28" fill="none" xmlns="http://www.w3.org/2000/svg">
<path d="M0.950676 16.7462C0.567223 14.9352 0.567223 13.0639 0.950676 11.2529C2.43068 11.4262 3.72401 10.9369 4.14534 9.91819C4.56801 8.89819 4.00134 7.63819 2.83068 6.71419C3.84006 5.16262 5.16311 3.83957 6.71468 2.83019C7.63734 3.99952 8.89868 4.56752 9.91868 4.14485C10.9387 3.72219 11.428 2.43019 11.2533 0.950188C13.0644 0.566734 14.9356 0.566734 16.7467 0.950188C16.5733 2.43019 17.0627 3.72352 18.0813 4.14485C19.1013 4.56752 20.3613 4.00085 21.2853 2.83019C22.8369 3.83957 24.16 5.16262 25.1693 6.71419C24 7.63685 23.432 8.89819 23.8547 9.91819C24.2773 10.9382 25.5693 11.4275 27.0493 11.2529C27.4328 13.0639 27.4328 14.9352 27.0493 16.7462C25.5693 16.5729 24.276 17.0622 23.8547 18.0809C23.432 19.1009 23.9987 20.3609 25.1693 21.2849C24.16 22.8364 22.8369 24.1595 21.2853 25.1689C20.3627 23.9995 19.1013 23.4315 18.0813 23.8542C17.0613 24.2769 16.572 25.5689 16.7467 27.0489C14.9356 27.4323 13.0644 27.4323 11.2533 27.0489C11.4267 25.5689 10.9373 24.2755 9.91868 23.8542C8.89868 23.4315 7.63868 23.9982 6.71468 25.1689C5.16311 24.1595 3.84006 22.8364 2.83068 21.2849C4.00001 20.3622 4.56801 19.1009 4.14534 18.0809C3.72268 17.0609 2.43068 16.5715 0.950676 16.7462ZM3.33334 14.2795C4.80001 14.6862 6.00934 15.6155 6.60934 17.0609C7.20801 18.5075 7.00934 20.0209 6.26001 21.3435C6.38801 21.4795 6.52001 21.6115 6.65601 21.7395C7.98001 20.9902 9.49201 20.7929 10.9387 21.3902C12.384 21.9902 13.3133 23.1995 13.72 24.6662C13.9067 24.6715 14.0933 24.6715 14.28 24.6662C14.6867 23.1995 15.616 21.9902 17.0613 21.3902C18.508 20.7915 20.0213 20.9902 21.344 21.7395C21.48 21.6115 21.612 21.4795 21.74 21.3435C20.9907 20.0195 20.7933 18.5075 21.3907 17.0609C21.9907 15.6155 23.2 14.6862 24.6667 14.2795C24.672 14.0929 24.672 13.9062 24.6667 13.7195C23.2 13.3129 21.9907 12.3835 21.3907 10.9382C20.792 9.49152 20.9907 7.97819 21.74 6.65552C21.6115 6.52005 21.4795 6.388 21.344 6.25952C20.02 7.00885 18.508 7.20619 17.0613 6.60885C15.616 6.00885 14.6867 4.79952 14.28 3.33285C14.0934 3.32791 13.9066 3.32791 13.72 3.33285C13.3133 4.79952 12.384 6.00885 10.9387 6.60885C9.49201 7.20752 7.97868 7.00885 6.65601 6.25952C6.52001 6.38752 6.38801 6.51952 6.26001 6.65552C7.00934 7.97952 7.20668 9.49152 6.60934 10.9382C6.00934 12.3835 4.80001 13.3129 3.33334 13.7195C3.32801 13.9062 3.32801 14.0929 3.33334 14.2795ZM14 17.9995C12.9391 17.9995 11.9217 17.5781 11.1716 16.8279C10.4214 16.0778 10 15.0604 10 13.9995C10 12.9387 10.4214 11.9212 11.1716 11.1711C11.9217 10.4209 12.9391 9.99952 14 9.99952C15.0609 9.99952 16.0783 10.4209 16.8284 11.1711C17.5786 11.9212 18 12.9387 18 13.9995C18 15.0604 17.5786 16.0778 16.8284 16.8279C16.0783 17.5781 15.0609 17.9995 14 17.9995ZM14 15.3329C14.3536 15.3329 14.6928 15.1924 14.9428 14.9423C15.1929 14.6923 15.3333 14.3531 15.3333 13.9995C15.3333 13.6459 15.1929 13.3068 14.9428 13.0567C14.6928 12.8067 14.3536 12.6662 14 12.6662C13.6464 12.6662 13.3072 12.8067 13.0572 13.0567C12.8072 13.3068 12.6667 13.6459 12.6667 13.9995C12.6667 14.3531 12.8072 14.6923 13.0572 14.9423C13.3072 15.1924 13.6464 15.3329 14 15.3329Z" fill="#52525B"/>
</svg>
