<svg width="28" height="28" viewBox="0 0 28 28" fill="none" xmlns="http://www.w3.org/2000/svg">
<path d="M5.28402 3.91052C7.70343 1.81406 10.7987 0.662051 14 0.666517C21.364 0.666517 27.3334 6.63585 27.3334 13.9999C27.3334 16.8479 26.44 19.4879 24.92 21.6532L20.6667 13.9999H24.6667C24.6669 11.9087 24.0524 9.86359 22.8996 8.11886C21.7468 6.37413 20.1066 5.00673 18.1829 4.18668C16.2593 3.36664 14.137 3.13012 12.08 3.50654C10.023 3.88296 8.12196 4.85572 6.61335 6.30385L5.28402 3.91052ZM22.716 24.0892C20.2966 26.1856 17.2014 27.3377 14 27.3332C6.63602 27.3332 0.666687 21.3639 0.666687 13.9999C0.666687 11.1519 1.56002 8.51185 3.08002 6.34652L7.33335 13.9999H3.33335C3.33318 16.091 3.94769 18.1361 5.10047 19.8808C6.25325 21.6256 7.89344 22.993 9.81711 23.813C11.7408 24.6331 13.8631 24.8696 15.9201 24.4932C17.9771 24.1167 19.8781 23.144 21.3867 21.6958L22.716 24.0892Z" fill="#52525B"/>
</svg>
